<?xml version="1.0" encoding="UTF-8" standalone="no"?>
<svg
   xmlns:dc="http://purl.org/dc/elements/1.1/"
   xmlns:cc="http://creativecommons.org/ns#"
   xmlns:rdf="http://www.w3.org/1999/02/22-rdf-syntax-ns#"
   xmlns:svg="http://www.w3.org/2000/svg"
   xmlns="http://www.w3.org/2000/svg"
   viewBox="0 0 423.20001 105.82667"
   height="105.82667"
   width="423.20001"
   xml:space="preserve"
   id="svg2"
   version="1.1"><metadata
     id="metadata8"><rdf:RDF><cc:Work
         rdf:about=""><dc:format>image/svg+xml</dc:format><dc:type
           rdf:resource="http://purl.org/dc/dcmitype/StillImage" /></cc:Work></rdf:RDF></metadata><defs
     id="defs6" /><g
     transform="matrix(1.3333333,0,0,-1.3333333,0,105.82667)"
     id="g10"><g
       transform="scale(0.1)"
       id="g12"><path
         id="path14"
         style="fill:#f7b70b;fill-opacity:1;fill-rule:nonzero;stroke:none"
         d="m 580.625,216.449 c -20.336,0 -40.215,3.414 -40.215,3.414 l 0.168,144.414 h -63.617 c 0,0 -2.883,17.973 -2.883,36.793 0,18.821 2.86,37.211 2.86,37.211 l 143.402,0.012 0.047,-218.402 c 0,0 -19.422,-3.442 -39.762,-3.442 z m -146.887,3.442 c 0,0 -20.281,-3.442 -41.515,-3.442 -21.235,0 -41.989,3.414 -41.989,3.414 l -0.093,144.571 H 252.324 V 219.891 c 0,0 -20.277,-3.442 -41.511,-3.442 -21.239,0 -41.993,3.414 -41.993,3.414 v 349.27 c 0,0 20.282,3.437 41.516,3.437 21.234,0 41.988,-3.41 41.988,-3.41 V 438.113 h 97.817 l 0.093,131.02 c 0,0 20.278,3.437 41.512,3.437 21.234,0 41.992,-3.41 41.992,-3.41 z M 572.051,587.5 c 26.07,0 47.207,-21.133 47.207,-47.203 0,-26.07 -21.137,-47.207 -47.207,-47.207 -26.071,0 -47.203,21.137 -47.203,47.207 0,26.07 21.132,47.203 47.203,47.203 z M 396.852,793.699 C 178.027,793.699 0,615.676 0,396.852 0,178.027 178.027,0 396.852,0 c 218.824,0 396.847,178.027 396.847,396.852 0,218.824 -178.023,396.847 -396.847,396.847" /><path
         id="path16"
         style="fill:#353433;fill-opacity:1;fill-rule:nonzero;stroke:none"
         d="m 2404.88,430.516 h -117.03 v 132.832 h -76.96 V 218.305 h 76.96 V 362.25 h 117.03 V 218.305 h 76.44 v 345.043 h -76.44 V 430.516" /><path
         id="path18"
         style="fill:#353433;fill-opacity:1;fill-rule:nonzero;stroke:none"
         d="m 2933.72,480.793 h -83.21 l -81.64,-104.254 h -2.09 v 212.746 h -74.37 v -370.98 h 74.37 v 64.562 l 32.77,37.571 58.25,-102.133 h 82.68 l -97.25,154.531 90.49,107.957" /><path
         id="path20"
         style="fill:#353433;fill-opacity:1;fill-rule:nonzero;stroke:none"
         d="m 3015.93,378.281 c 5.21,34.93 26,51.332 49.93,51.332 30.68,0 43.17,-21.164 43.17,-51.332 z m 158.1,-15.347 c 0,71.441 -36.4,125.949 -109.73,125.949 -61.89,0 -121.69,-52.387 -121.69,-137.598 0,-86.781 56.68,-137.586 130.54,-137.586 30.67,0 65,11.11 91.53,29.629 l -25.49,47.102 c -18.73,-11.637 -36.41,-17.461 -55.65,-17.461 -34.32,0 -60.32,17.461 -67.09,57.152 h 154.47 c 1.55,6.348 3.11,19.055 3.11,32.813" /><path
         id="path22"
         style="fill:#353433;fill-opacity:1;fill-rule:nonzero;stroke:none"
         d="m 2548.54,218.305 h 76.45 v 262.488 h -76.45 z m -4.83,346.687 c 0,24.199 19.27,43.817 43.06,43.817 23.78,0 43.05,-19.618 43.05,-43.817 0,-24.195 -19.27,-43.812 -43.05,-43.812 -23.79,0 -43.06,19.617 -43.06,43.812" /><path
         id="path24"
         style="fill:#353433;fill-opacity:1;fill-rule:nonzero;stroke:none"
         d="M 1185.34,430.516 H 1068.33 V 563.348 H 991.355 V 218.305 h 76.975 V 362.25 h 117.01 V 218.305 h 76.44 v 345.043 h -76.44 V 430.516" /><path
         id="path26"
         style="fill:#353433;fill-opacity:1;fill-rule:nonzero;stroke:none"
         d="m 1594.87,272.813 c -20.28,0 -33.28,12.171 -33.28,41.812 v 105.313 h 61.89 v 60.855 h -61.89 v 69.855 h -63.45 l -7.96,-69.293 -40.4,-0.14 v -61.277 h 35.35 V 313.566 c 0,-60.867 24.97,-101.609 88.94,-101.609 24.96,0 43.69,5.289 57.2,9.527 l -11.95,56.618 c -6.76,-2.645 -16.12,-5.289 -24.45,-5.289" /><path
         id="path28"
         style="fill:#353433;fill-opacity:1;fill-rule:nonzero;stroke:none"
         d="m 1792.98,274.934 c -33.29,0 -57.72,29.105 -57.72,74.609 0,45.516 23.4,74.625 60.32,74.625 11.96,0 23.4,-4.766 35.88,-15.344 l 34.85,48.153 c -17.17,17.992 -43.68,30.164 -75.41,30.164 -71.25,0 -134.18,-50.27 -134.18,-137.598 0,-87.316 55.65,-137.586 127.42,-137.586 28.08,0 60.85,10.586 85.81,32.813 l -30.68,49.218 c -12.48,-10.062 -27.57,-19.054 -46.29,-19.054" /><path
         id="path30"
         style="fill:#353433;fill-opacity:1;fill-rule:nonzero;stroke:none"
         d="m 1329.11,218.305 h 76.45 v 262.488 h -76.45 z m 81.28,346.687 c 0,-24.199 -19.27,-43.812 -43.06,-43.812 -23.77,0 -43.05,19.613 -43.05,43.812 0,24.199 19.28,43.817 43.05,43.817 23.79,0 43.06,-19.618 43.06,-43.817" /><path
         id="path32"
         style="fill:#353433;fill-opacity:1;fill-rule:nonzero;stroke:none"
         d="m 2063.74,487.141 c -32.91,0 -57.39,-16.52 -76.23,-33.071 v 144.18 h -76.15 V 218.305 h 76.45 v 177.289 c 16.64,16.398 28.6,25.402 47.84,25.402 21.85,0 31.73,-11.644 31.73,-49.754 V 218.305 h 76.45 v 163 c 0,65.617 -23.92,105.836 -80.09,105.836" /></g></g></svg>